<?xml version="1.0" standalone="no"?>
<!DOCTYPE svg PUBLIC "-//W3C//DTD SVG 20010904//EN"
 "http://www.w3.org/TR/2001/REC-SVG-20010904/DTD/svg10.dtd">
<svg version="1.0" xmlns="http://www.w3.org/2000/svg"
 width="1024.000000pt" height="1024.000000pt" viewBox="0 0 1024.000000 1024.000000"
 preserveAspectRatio="xMidYMid meet">

<g transform="translate(0.000000,1024.000000) scale(0.100000,-0.100000)"
fill="#000000" stroke="none">
<path d="M3250 8963 c-161 -27 -328 -148 -404 -292 -71 -137 -66 6 -66 -1830
0 -1786 -3 -1694 52 -1813 52 -112 136 -200 249 -261 131 -72 22 -67 1557 -65
l1383 3 -61 83 c-234 320 -735 653 -1310 870 -433 164 -1142 351 -1510 398
-94 12 -26 21 95 13 239 -16 285 -20 422 -34 309 -32 642 -85 1043 -165 718
-144 1379 -364 1880 -627 220 -116 425 -252 542 -360 26 -23 51 -43 56 -43 6
0 35 27 66 60 61 67 118 174 135 258 8 37 11 539 11 1681 0 1591 0 1630 -20
1705 -11 43 -34 103 -52 135 -48 84 -150 179 -240 224 -143 71 -17 67 -2008
65 -987 0 -1806 -3 -1820 -5z m2730 -658 c366 -26 561 -50 610 -75 66 -34 91
-80 120 -220 l17 -85 49 -5 c59 -6 70 -12 89 -51 18 -34 45 -201 45 -279 0
-75 -18 -100 -72 -100 l-41 0 7 -57 c34 -300 48 -504 53 -784 6 -310 5 -318
-16 -361 -45 -93 -97 -102 -666 -114 -187 -3 -529 -12 -760 -18 l-420 -11 -27
-56 c-31 -66 -74 -102 -140 -118 -76 -18 -224 -8 -190 13 7 4 23 29 36 55 82
161 73 513 -17 662 -38 62 -69 87 -118 95 -79 13 -135 -38 -180 -167 -20 -55
-23 -88 -25 -239 -3 -161 -4 -175 -21 -174 -10 1 -110 11 -222 24 -173 20
-205 21 -211 9 -54 -94 -94 -119 -191 -119 l-67 0 26 63 c22 52 26 82 30 189
7 206 -26 333 -94 366 -31 14 -37 14 -67 0 -58 -28 -102 -142 -115 -298 l-7
-85 -53 -3 c-46 -3 -56 0 -81 25 l-28 28 -6 229 c-12 411 -9 852 7 890 26 62
-21 39 796 379 1068 444 981 419 1425 412 171 -2 407 -11 525 -20z m-1395
-1670 c48 -62 68 -145 69 -285 0 -105 -3 -135 -22 -184 -28 -76 -56 -106 -97
-106 -68 0 -120 98 -131 243 -10 138 22 293 73 349 9 10 30 18 49 18 26 0 39
-7 59 -35z m-990 -20 c24 -49 33 -223 16 -307 -15 -70 -57 -124 -89 -114 -44
14 -57 59 -57 201 0 135 17 215 52 251 25 25 56 13 78 -31z m2785 -501 c0 -22
-49 -85 -83 -108 -58 -37 -110 -49 -188 -44 -87 7 -147 36 -187 92 -18 24 -32
47 -32 50 0 8 82 12 293 14 108 1 197 -1 197 -4z"/>
<path d="M5170 8118 c-50 -27 -52 -46 -30 -290 27 -287 58 -594 71 -683 24
-176 115 -258 315 -284 241 -32 827 -38 1009 -11 141 21 204 57 225 129 9 34
6 69 -50 506 -17 132 -38 296 -46 364 -9 68 -20 134 -24 147 -15 39 -61 54
-200 64 -399 31 -766 53 -1085 65 -124 5 -166 3 -185 -7z"/>
<path d="M4840 8030 c-30 -11 -94 -34 -142 -51 l-88 -32 0 -333 0 -333 63 -55
c258 -228 363 -316 372 -313 17 6 8 194 -30 656 -26 313 -41 442 -51 459 -18
27 -50 28 -124 2z"/>
<path d="M4358 7867 l-158 -62 0 -296 0 -296 58 8 c31 5 105 16 165 25 l107
17 0 333 c0 184 -3 334 -7 333 -5 -1 -79 -29 -165 -62z"/>
<path d="M3990 7730 l-125 -47 -3 -262 -2 -261 22 4 c13 3 71 13 130 22 l107
17 3 284 c2 157 1 286 -2 288 -3 1 -61 -19 -130 -45z"/>
<path d="M3655 7606 l-110 -42 -3 -232 c-1 -128 1 -232 4 -232 4 0 58 9 120
21 l113 21 3 254 c2 165 -1 254 -7 253 -5 0 -59 -20 -120 -43z"/>
<path d="M3435 7530 c-11 -5 -46 -19 -77 -31 l-58 -20 0 -218 0 -218 58 14
c31 7 71 17 87 21 l30 8 3 227 c3 240 3 238 -43 217z"/>
<path d="M5194 6675 c-9 -34 0 -173 12 -185 10 -9 453 -34 462 -26 3 3 -8 40
-23 81 -20 55 -34 79 -50 85 -12 4 -98 20 -191 35 -93 14 -177 29 -186 31 -12
4 -19 -2 -24 -21z"/>
<path d="M6654 6651 c-44 -10 -87 -20 -96 -24 -15 -5 -67 -142 -57 -151 6 -5
264 30 278 38 6 4 11 37 11 82 l0 74 -27 -1 c-16 -1 -64 -9 -109 -18z"/>
<path d="M5736 6602 c3 -10 14 -41 24 -71 9 -30 25 -60 36 -68 20 -15 193 -17
456 -6 l156 6 16 63 c9 35 16 69 16 76 0 10 -72 13 -356 15 -327 1 -355 0
-348 -15z"/>
<path d="M2988 4262 l-148 -3 0 -697 0 -697 150 0 150 0 0 699 c0 384 -1 699
-2 700 -2 1 -69 0 -150 -2z"/>
<path d="M1342 3564 l3 -696 320 0 c351 1 408 7 536 61 101 42 161 84 232 161
111 120 163 251 174 435 19 328 -140 571 -446 683 -125 45 -192 52 -517 52
l-304 0 2 -696z m642 420 c208 -51 329 -230 313 -465 -9 -143 -92 -275 -213
-341 -79 -42 -163 -59 -308 -61 l-131 -2 -3 439 c-2 345 0 441 10 448 19 11
264 -2 332 -18z"/>
<path d="M3330 4132 l0 -128 208 0 207 1 3 -570 2 -571 150 1 150 0 2 570 3
570 202 0 203 0 0 128 0 127 -565 0 -565 0 0 -128z"/>
<path d="M4655 3565 l0 -697 147 -2 148 -1 0 248 0 247 108 0 107 0 84 -161
c46 -89 105 -199 131 -246 l47 -85 174 0 c96 0 178 1 183 1 5 1 0 11 -11 24
-11 12 -68 101 -128 197 -60 96 -114 182 -120 190 -7 8 -24 36 -39 62 l-27 46
60 32 c75 40 144 113 179 188 21 47 26 76 30 162 10 247 -85 383 -323 463 -54
19 -92 21 -405 24 l-345 4 0 -696z m602 430 c217 -27 226 -330 11 -374 -30 -7
-112 -10 -184 -9 l-129 3 -3 185 c-1 101 -1 189 1 195 5 11 214 11 304 0z"/>
<path d="M6366 4118 c-30 -79 -130 -339 -221 -578 -92 -239 -187 -486 -211
-548 -24 -63 -44 -117 -44 -120 0 -4 71 -6 157 -5 l158 2 55 145 55 146 280 0
280 0 55 -145 c30 -80 59 -146 65 -146 5 -1 74 -2 153 -3 138 -1 143 0 139 19
-5 19 -73 200 -350 930 -69 182 -135 356 -147 388 l-21 57 -174 0 -173 0 -56
-142z m328 -434 c52 -142 91 -260 88 -261 -4 -1 -92 -3 -195 -5 -163 -3 -187
-1 -184 12 3 8 44 123 91 255 48 132 89 246 92 254 2 8 7 12 9 9 2 -2 47 -121
99 -264z"/>
<path d="M7462 3565 l3 -696 142 -3 143 -3 2 494 3 494 37 -88 c21 -48 100
-231 175 -405 l138 -318 119 3 120 2 170 398 c93 218 174 397 178 397 5 0 8
-219 8 -487 -1 -331 3 -488 10 -487 5 1 66 2 135 3 l125 1 0 695 0 695 -193 0
-192 0 -42 -102 c-23 -57 -79 -188 -123 -293 -45 -104 -105 -247 -133 -317
-29 -70 -55 -128 -58 -128 -7 0 -7 2 -215 495 l-143 340 -206 3 -205 2 2 -695z"/>
<path d="M1410 2331 l0 -191 73 0 c97 0 144 15 188 59 48 48 64 104 49 174
-21 100 -77 138 -217 145 l-93 5 0 -192z m206 85 c30 -30 34 -40 34 -86 0 -45
-4 -56 -33 -85 -32 -32 -103 -55 -127 -40 -6 4 -10 54 -10 126 l0 119 51 0
c45 0 55 -4 85 -34z"/>
<path d="M1807 2513 c-4 -3 -7 -89 -7 -190 l0 -183 35 0 35 0 0 190 0 190 -28
0 c-16 0 -32 -3 -35 -7z"/>
<path d="M1978 2514 c-5 -4 -8 -90 -8 -191 l0 -184 38 3 c36 3 37 4 35 43 -4
63 4 85 30 85 17 0 34 -17 65 -65 41 -62 45 -65 83 -65 21 0 39 2 39 5 0 3
-20 36 -45 72 l-46 67 30 23 c59 47 59 142 0 184 -25 18 -49 23 -123 27 -50 2
-94 1 -98 -4z m173 -74 c23 -13 26 -62 3 -84 -9 -10 -33 -16 -59 -16 -42 0
-44 2 -50 33 -11 66 -5 77 43 77 24 0 52 -5 63 -10z"/>
<path d="M2340 2329 l0 -189 113 0 c63 0 116 2 119 5 3 3 3 17 0 30 -4 24 -7
25 -83 25 l-79 0 0 55 0 55 71 0 70 0 -3 28 c-3 26 -4 27 -71 27 l-67 0 0 43
0 42 80 0 80 0 0 33 0 32 -115 2 -115 2 0 -190z"/>
<path d="M2650 2512 c-6 -2 -10 -17 -10 -33 0 -28 1 -29 50 -29 l50 0 0 -155
0 -155 35 0 35 0 0 155 0 155 61 0 61 0 -7 27 c-4 16 -8 29 -9 30 -4 4 -255 8
-266 5z"/>
<path d="M3052 2493 c-88 -58 -113 -178 -56 -269 41 -66 82 -86 165 -82 114 6
173 70 174 188 0 113 -65 181 -179 188 -53 3 -66 0 -104 -25z m147 -47 c79
-41 90 -162 20 -220 -36 -30 -92 -35 -127 -10 -57 40 -70 141 -25 194 42 50
83 61 132 36z"/>
<path d="M3420 2330 l0 -190 35 0 35 0 0 65 c0 63 1 65 25 65 20 0 33 -13 66
-65 39 -62 43 -65 80 -65 21 0 39 3 39 7 0 4 -19 35 -42 71 l-41 64 31 29 c36
34 47 65 38 112 -13 68 -72 96 -198 97 l-68 0 0 -190z m179 101 c22 -22 18
-67 -8 -80 -9 -5 -34 -11 -56 -12 l-40 -4 -3 58 -3 57 46 0 c31 0 51 -6 64
-19z"/>
<path d="M3780 2331 l0 -191 35 0 35 0 -2 188 -3 187 -32 3 -33 3 0 -190z"/>
<path d="M4049 2493 c-6 -15 -24 -66 -41 -113 -17 -47 -43 -118 -59 -158 -16
-40 -29 -75 -29 -78 0 -3 17 -4 38 -2 34 3 38 7 52 46 l14 42 72 0 72 0 18
-45 c15 -41 20 -45 50 -45 21 0 34 5 33 13 0 6 -31 91 -68 187 l-67 175 -37 3
c-33 3 -38 0 -48 -25z m75 -141 l25 -62 -50 0 c-27 0 -49 4 -49 9 0 15 43 122
47 118 2 -2 14 -32 27 -65z"/>
<path d="M4488 2514 c-5 -4 -8 -90 -8 -192 l0 -184 99 4 c93 3 102 6 138 34
50 40 73 87 73 151 0 86 -32 141 -97 169 -37 16 -194 30 -205 18z m172 -79
c38 -19 60 -63 60 -116 0 -33 -6 -47 -33 -74 -20 -20 -48 -36 -70 -40 -65 -13
-67 -9 -67 125 l0 120 40 0 c23 0 54 -7 70 -15z"/>
<path d="M4870 2328 l0 -188 120 0 120 0 0 30 0 30 -72 0 c-40 0 -79 4 -86 9
-9 5 -12 24 -10 52 l3 44 68 3 c68 3 68 3 65 30 -3 26 -5 27 -70 30 l-68 3 0
39 0 40 86 0 85 0 -3 33 -3 32 -117 0 -118 0 0 -187z"/>
<path d="M5294 2511 c-2 -2 -4 -17 -4 -33 0 -27 1 -28 55 -28 l55 0 0 -155 0
-155 35 0 35 0 0 155 0 155 55 0 c54 0 55 0 55 29 l0 30 -141 3 c-77 2 -143 1
-145 -1z"/>
<path d="M5650 2332 l0 -192 35 0 35 0 0 65 c0 64 0 65 28 65 23 0 33 -10 67
-65 39 -64 40 -65 83 -65 49 0 49 -5 -12 83 l-41 58 32 25 c41 32 56 83 40
132 -18 53 -56 71 -171 79 l-96 6 0 -191z m182 101 c45 -40 9 -93 -64 -93
l-48 0 0 55 0 55 47 0 c29 0 53 -6 65 -17z"/>
<path d="M6066 2362 c-33 -86 -65 -172 -73 -189 l-13 -33 39 0 c37 0 39 2 51
45 l13 46 75 -3 75 -3 16 -42 c14 -41 17 -43 54 -43 27 0 38 4 34 13 -3 6 -33
84 -67 172 -79 203 -74 195 -113 195 l-32 0 -59 -158z m119 -2 c9 -25 19 -51
22 -57 4 -10 -9 -13 -47 -13 -37 0 -51 4 -48 13 3 6 13 36 23 65 21 58 24 57
50 -8z"/>
<path d="M6413 2513 c-10 -3 -13 -51 -13 -189 l0 -184 35 0 35 0 0 128 c1 103
3 124 13 110 7 -10 46 -67 87 -128 70 -102 77 -110 108 -110 l32 0 0 183 c0
101 -2 186 -5 189 -3 2 -18 3 -35 0 l-29 -4 -3 -114 -3 -115 -65 93 c-106 150
-115 158 -157 141z"/>
<path d="M6842 2495 c-16 -13 -35 -38 -42 -54 -18 -44 11 -100 65 -124 93 -41
110 -53 113 -73 6 -45 -66 -61 -129 -30 -30 15 -34 15 -48 1 -12 -12 -13 -20
-5 -33 20 -32 56 -43 133 -40 66 3 76 6 97 31 28 33 33 100 9 133 -8 12 -38
31 -67 43 -88 37 -98 43 -98 66 0 46 51 59 115 28 33 -16 36 -16 49 2 18 25
11 40 -29 59 -52 25 -128 21 -163 -9z"/>
<path d="M7140 2515 c0 -3 -1 -87 -1 -187 l0 -183 35 -3 36 -3 0 65 0 66 50 0
c93 0 140 42 140 123 0 90 -29 111 -167 120 -51 4 -93 5 -93 2z m174 -81 c9
-8 16 -25 16 -38 0 -38 -23 -58 -73 -63 l-47 -5 0 61 0 61 44 0 c27 0 51 -6
60 -16z"/>
<path d="M7575 2508 c-33 -18 -76 -61 -93 -93 -24 -47 -20 -133 9 -185 36 -66
78 -90 158 -90 79 0 117 20 157 80 23 34 28 53 28 103 -1 88 -45 159 -117 186
-36 14 -116 14 -142 -1z m119 -63 c44 -21 66 -63 66 -123 0 -44 -5 -56 -34
-86 -73 -78 -186 -22 -186 92 0 56 21 95 62 115 41 21 52 21 92 2z"/>
<path d="M7928 2514 c-5 -4 -8 -90 -8 -191 l0 -183 35 0 35 0 0 65 c0 61 1 65
23 65 18 0 35 -16 68 -65 43 -62 45 -65 87 -65 49 0 49 -5 -12 83 l-41 59 26
22 c35 30 49 58 49 96 0 43 -23 84 -55 98 -32 15 -197 28 -207 16z m176 -86
c21 -30 20 -44 -4 -68 -14 -14 -33 -20 -65 -20 l-45 0 0 55 0 55 49 0 c40 0
53 -4 65 -22z"/>
<path d="M8250 2485 l0 -35 55 0 55 0 0 -155 0 -155 35 0 35 0 0 155 0 155 56
0 55 0 -3 33 -3 32 -142 3 -143 2 0 -35z"/>
<path d="M8600 2330 l0 -190 120 0 120 0 0 30 0 30 -85 0 -85 0 0 55 0 55 70
0 70 0 0 30 0 30 -70 0 -70 0 0 40 0 40 86 0 85 0 -3 33 -3 32 -117 3 -118 3
0 -191z"/>
<path d="M3896 1808 c-28 -59 -53 -108 -56 -108 -3 0 -27 47 -54 105 l-50 105
-48 0 -48 0 0 -185 0 -185 35 0 35 0 0 133 1 132 52 -100 c71 -137 81 -137
144 -11 26 53 50 96 53 96 3 0 4 -56 2 -125 l-3 -125 35 0 36 0 0 184 0 184
-42 4 -42 4 -50 -108z"/>
<path d="M4527 1914 c-4 -4 -7 -90 -7 -191 l0 -183 35 0 34 0 3 128 3 127 88
-127 c79 -115 91 -128 118 -128 l29 0 0 185 0 185 -33 0 -32 0 2 -122 c1 -97
-1 -119 -10 -106 -97 141 -164 228 -178 228 -10 0 -24 2 -31 5 -8 3 -17 2 -21
-1z"/>
<path d="M5200 1909 c-33 -13 -78 -57 -97 -94 -24 -45 -21 -132 5 -182 32 -60
74 -87 148 -91 65 -4 103 9 138 47 18 20 18 22 1 41 -17 19 -18 19 -60 -5 -51
-30 -80 -31 -123 -5 -83 51 -73 183 16 226 38 18 71 13 113 -17 26 -19 27 -19
50 0 l24 19 -20 22 c-40 45 -133 64 -195 39z"/>
<path d="M6365 1912 c-3 -3 -5 -88 -5 -188 l0 -183 118 2 117 2 3 33 3 32 -85
0 -86 0 0 149 0 149 -30 4 c-17 3 -32 2 -35 0z"/>
<path d="M4130 1771 c0 -127 2 -141 23 -172 12 -18 34 -39 47 -46 38 -19 130
-16 163 6 56 37 62 54 65 209 l4 142 -36 0 -36 0 0 -126 c0 -125 0 -126 -29
-155 -35 -34 -68 -37 -105 -8 -26 20 -26 22 -26 155 l0 134 -35 0 -35 0 0
-139z"/>
<path d="M4940 1725 l0 -185 36 0 35 0 -2 185 -2 185 -34 0 -33 0 0 -185z"/>
<path d="M5490 1725 l0 -185 35 0 35 0 0 185 0 185 -35 0 -35 0 0 -185z"/>
<path d="M5660 1725 l0 -185 35 0 34 0 3 66 3 65 59 4 c90 5 136 48 136 129 0
30 -7 45 -34 72 l-34 34 -101 0 -101 0 0 -185z m175 110 c14 -13 25 -31 25
-40 0 -31 -46 -65 -90 -65 l-40 0 0 65 0 65 40 0 c30 0 47 -7 65 -25z"/>
<path d="M6064 1873 c-21 -50 -124 -324 -124 -330 0 -2 17 -3 37 -1 33 3 38 7
51 46 l14 42 73 0 73 0 14 -42 c13 -39 18 -43 52 -46 28 -2 37 0 34 10 -1 8
-32 91 -68 186 l-65 172 -38 0 c-34 0 -39 -4 -53 -37z m96 -174 c0 -4 -20 -7
-45 -6 -26 1 -45 7 -45 14 0 6 10 37 22 68 l21 57 24 -62 c13 -35 23 -66 23
-71z"/>
</g>
</svg>
